<?xml version="1.0" standalone="no"?>
<!DOCTYPE svg PUBLIC "-//W3C//DTD SVG 20010904//EN"
 "http://www.w3.org/TR/2001/REC-SVG-20010904/DTD/svg10.dtd">
<svg version="1.0" xmlns="http://www.w3.org/2000/svg"
 width="1280.000000pt" height="782.000000pt" viewBox="0 0 1280.000000 782.000000"
 preserveAspectRatio="xMidYMid meet">
<metadata>
Created by potrace 1.15, written by Peter Selinger 2001-2017
</metadata>
<g transform="translate(0.000000,782.000000) scale(0.100000,-0.100000)"
fill="#000000" stroke="none">
<path d="M5735 7809 c-1036 -90 -1883 -588 -2280 -1341 -106 -203 -176 -411
-219 -660 l-7 -38 -72 63 c-285 246 -633 425 -972 497 -155 34 -451 39 -610
12 -156 -27 -274 -62 -412 -122 -610 -263 -1061 -865 -1148 -1533 -54 -415 53
-848 293 -1182 l57 -80 6011 -3 6011 -2 61 107 c167 293 276 582 328 873 22
120 25 421 6 530 -39 213 -99 370 -207 535 -343 530 -1056 796 -1750 654 -421
-86 -801 -320 -1077 -664 l-51 -65 -73 139 c-222 427 -459 753 -789 1090 -644
657 -1431 1051 -2335 1171 -181 24 -591 34 -765 19z"/>
<path d="M2852 3108 c-7 -7 -12 -9 -12 -5 0 7 -142 -81 -300 -186 -298 -199
-542 -410 -593 -513 -44 -88 -59 -167 -55 -284 6 -128 30 -197 94 -269 98
-109 259 -149 412 -102 138 42 289 167 342 284 63 142 112 450 125 797 3 80 8
178 10 218 5 71 0 83 -23 60z"/>
<path d="M6810 3067 c-412 -258 -721 -502 -810 -639 -89 -136 -100 -360 -27
-504 70 -136 225 -210 381 -181 111 20 259 112 340 210 94 115 152 411 177
914 6 122 9 226 7 231 -1 5 -32 -9 -68 -31z"/>
<path d="M10655 3075 c-374 -241 -587 -397 -716 -525 -132 -131 -166 -203
-176 -375 -9 -157 29 -269 117 -349 71 -64 129 -86 233 -87 124 -2 244 52 363
164 91 85 132 173 169 368 33 179 70 618 63 765 l-3 71 -50 -32z"/>
<path d="M1789 1339 c-364 -219 -724 -502 -809 -635 -90 -143 -101 -373 -23
-515 73 -136 243 -210 408 -180 151 27 330 163 391 296 71 155 118 474 131
888 4 127 3 197 -4 197 -5 0 -48 -23 -94 -51z"/>
<path d="M5850 1356 c-19 -13 -102 -67 -185 -121 -409 -266 -649 -480 -690
-618 -63 -208 -30 -403 87 -513 121 -113 286 -124 462 -31 81 43 199 156 230
220 33 68 71 214 91 350 30 207 64 738 47 736 -4 0 -23 -11 -42 -23z"/>
<path d="M9625 1317 c-307 -193 -524 -355 -666 -496 -59 -58 -115 -124 -126
-146 -55 -109 -71 -297 -35 -412 45 -145 158 -238 300 -250 122 -10 234 30
361 129 137 108 186 233 231 597 21 172 44 519 38 593 l-3 48 -100 -63z"/>
</g>
</svg>
