<?xml version="1.0" standalone="no"?>
<!DOCTYPE svg PUBLIC "-//W3C//DTD SVG 20010904//EN"
 "http://www.w3.org/TR/2001/REC-SVG-20010904/DTD/svg10.dtd">
<svg version="1.0" xmlns="http://www.w3.org/2000/svg"
 width="300.000000pt" height="255.000000pt" viewBox="0 0 300.000000 255.000000"
 preserveAspectRatio="xMidYMid meet">
<metadata>
Created by potrace 1.10, written by Peter Selinger 2001-2011
</metadata>
<g transform="translate(0.000000,255.000000) scale(0.100000,-0.100000)"
fill="#0b5394" stroke="none">
<path d="M147 2539 c-53 -13 -84 -36 -112 -84 l-25 -42 0 -1127 c0 -1103 0
-1128 20 -1166 24 -47 62 -75 121 -90 31 -7 371 -10 1144 -8 l1100 3 47 27
c32 19 52 41 67 71 21 43 21 47 21 1160 0 764 -3 1125 -11 1144 -13 35 -54 79
-94 101 -27 16 -126 17 -1135 19 -625 1 -1121 -3 -1143 -8z m507 -353 c82 -34
147 -150 131 -234 -21 -114 -106 -186 -220 -187 -74 0 -137 33 -180 96 -40 56
-47 156 -17 215 23 44 63 84 107 107 37 20 135 22 179 3z m1258 -585 c77 -30
150 -97 187 -174 53 -108 61 -191 61 -638 l0 -399 -190 0 -190 0 0 353 c0 282
-3 364 -15 411 -28 106 -73 141 -180 140 -79 0 -118 -16 -159 -64 -51 -62 -56
-102 -56 -487 l0 -353 -190 0 -190 0 0 605 0 605 180 0 180 0 0 -81 0 -81 33
43 c40 54 111 104 179 130 75 28 267 22 350 -10z m-1152 -606 l0 -605 -190 0
-190 0 0 605 0 605 190 0 190 0 0 -605z"/>
<path d="M2733 319 c-79 -50 -102 -159 -51 -236 91 -137 308 -72 308 92 0 60
-26 106 -79 142 -45 31 -132 32 -178 2z m167 -11 c55 -38 75 -73 75 -133 0
-153 -195 -212 -281 -86 -33 48 -33 124 -1 171 46 69 143 91 207 48z"/>
<path d="M2760 175 c0 -84 16 -119 22 -48 4 53 28 54 62 3 14 -22 31 -40 37
-40 5 0 -2 17 -15 37 l-25 37 22 11 c12 6 23 21 25 33 6 38 -15 52 -74 52
l-54 0 0 -85z m94 69 c26 -10 20 -53 -8 -60 -43 -10 -61 -1 -64 34 -3 30 -1
32 27 32 16 0 36 -3 45 -6z"/>
</g>
</svg>
